<svg id="Layer_1" data-name="Layer 1" xmlns="http://www.w3.org/2000/svg" viewBox="0 0 332.17 338.85"><title>Artboard 1</title><path d="M37.5,228c-.53.5-.9.85-1.16,1.09l-.65.58-.45.39a1.47,1.47,0,0,1-.22.17l.37-.12.54.17.29.42s0,.42,0,.34a3.33,3.33,0,0,1,.2-.46l.33-.67c.12-.24.52-1.08,1.14-2.54s1-2.54,1.25-3.19.58-1.32.89-2.05.74-1.61,1.24-2.65.94-2,1.35-2.78.93-1.88,1.57-3.18,1.3-2.69,2-4.15l2.12-4.44c.72-1.5,1.46-3.11,2.21-4.82s1.59-3.6,2.51-5.69,1.81-4.06,2.66-5.92,1.82-4,2.92-6.44,2.19-4.84,3.28-7.24,2.22-4.83,3.39-7.32,2.39-5,3.68-7.56,2.61-5,4-7.46,2.7-4.78,4.07-7.1,2.71-4.55,4-6.69,2.54-4.2,3.76-6.19,2.31-3.76,3.27-5.3,1.87-2.88,2.76-4.06L93.14,120l1.77-2.33,1.4-1.85,1.12-1.5c.35-.4.81-1,1.51-1.77a9,9,0,0,0,1.18-1.34l.17-.24s-1.41-.92-1.42-.9l0,.08-.2.33-.8,1.33c-.58,1.26-1.66,3-3,5.49-2.8,4.79-4.46,7.53-4.89,8.27s-1,1.76-1.74,3-1.38,2.49-2,3.61-1.51,2.9-2.75,5.32-2.13,4.21-2.66,5.34-1,2.15-1.4,3-.87,2-1.41,3.27-1,2.33-1.25,3.09-.58,1.64-.85,2.56-.51,1.82-.68,2.63-.3,1.54-.37,2.11-.11,1.19-.15,1.77a15.74,15.74,0,0,0,0,1.93A10.82,10.82,0,0,0,75,165a9.26,9.26,0,0,0,.43,1.36,9.11,9.11,0,0,0,.6,1.19,6.92,6.92,0,0,0,.66.9,4.67,4.67,0,0,0,.75.6,5.29,5.29,0,0,0,.88.42,5.11,5.11,0,0,0,1.06.2,5.45,5.45,0,0,0,1.33-.14,7.24,7.24,0,0,0,1.51-.6c.47-.31,1-.59,1.4-.89s1.24-.82,2.49-1.6a12.94,12.94,0,0,1,2.33-1.3,5.64,5.64,0,0,1,.86-.19,2.52,2.52,0,0,1,.64-.08c.27,0,.12-.05.17,0s-.14-.09-.11-.07-.13-.16-.11-.12-.08-.3-.08-.13,0,.14-.12.47a23,23,0,0,1-1.38,2.51,13.76,13.76,0,0,1-1.78,3.06c-.47.59-.91,1.06-1.28,1.47s-1.26,1.25-2.67,2.59-2.38,2.18-2.89,2.61l-1.57,1.32c-.54.46-1.19,1-2,1.58s-1.54,1.17-2.28,1.7-1.37,1-1.88,1.31-1,.68-1.58,1a28.67,28.67,0,0,1-2.77,1.51,23.66,23.66,0,0,1-2.34,1,4.37,4.37,0,0,0-.69.14,1.41,1.41,0,0,1-.41.08c-.17,0,.23.13.21.12a4.63,4.63,0,0,0,.34.53s-.1.47,0,.37.05-.07.25-.25a7.09,7.09,0,0,1,.75-.58c.35-.25.64-.43,1-.64s1.17-.61,2.54-1.4,2.24-1.2,2.59-1.37.72-.33,1.11-.51,1.29-.53,2.73-1.09l2.69-1,1.15-.41c.41-.15,1.19-.41,2.33-.77s2.22-.76,3.22-1.09,1.7-.6,2-.71a7.06,7.06,0,0,0,.78-.39c.22-.13.53-.33.81-.53s.61-.45.88-.67.56-.48.78-.7.47-.48.69-.72.43-.49.59-.69.77-1.19,1.7-2.8,1.45-2.75,1.55-3.07.22-.76.34-1.26.25-1,.35-1.57.21-1.1.29-1.67.18-1.21.24-1.87.14-1.36.18-2,.08-1.42.08-2.17,0-1.61-.06-2.53-.12-1.81-.21-2.6-.21-1.63-.36-2.43A21.06,21.06,0,0,0,95,148a16.68,16.68,0,0,0-.8-2.07,14.6,14.6,0,0,0-1.06-1.84,9.35,9.35,0,0,0-1.31-1.56,6.92,6.92,0,0,0-1.4-1,5.43,5.43,0,0,0-1.66-.51,7.08,7.08,0,0,0-2.21.14,12.93,12.93,0,0,0-2.46.77c-.77.34-1.58.72-2.34,1.15S80,144,79,144.72s-2,1.35-2.78,2-1.7,1.33-2.58,2.07-1.75,1.52-2.59,2.32-1.74,1.68-2.65,2.64-1.72,1.86-2.41,2.68-1.47,1.82-2.33,3-1.63,2.22-2.28,3.19-1.19,1.82-1.61,2.51-.84,1.46-1.24,2.25a13.54,13.54,0,0,0-.87,2.12,13.2,13.2,0,0,0-.38,1.77,11.21,11.21,0,0,0-.11,1.94,9.38,9.38,0,0,0,.17,1.78,8,8,0,0,0,.46,1.42,8.81,8.81,0,0,0,.69,1.28,9.48,9.48,0,0,0,.87,1.1,10.5,10.5,0,0,0,1.1,1,11.14,11.14,0,0,0,1.24.86,8.27,8.27,0,0,0,1.33.64,7.91,7.91,0,0,0,1.61.39,10.36,10.36,0,0,0,1.78.08,12.46,12.46,0,0,0,1.8-.24,16,16,0,0,0,1.86-.52,14.77,14.77,0,0,0,1.85-.8,16.63,16.63,0,0,0,2-1.25,24.35,24.35,0,0,0,2-1.54c.57-.51,1.1-1,1.52-1.43s.89-1,1.38-1.55.95-1.18,1.34-1.72.79-1.14,1.17-1.76.79-1.32,1.19-2.07a18.49,18.49,0,0,0,1-2.3c.28-.74.55-1.5.8-2.26s.5-1.58.74-2.45.46-1.66.63-2.34.38-1.56.6-2.6.4-2,.53-2.84.24-1.65.32-2.39.14-1.44.2-2a13.27,13.27,0,0,0,.06-1.41,4.07,4.07,0,0,0-.07-.8,3.27,3.27,0,0,0-.31-.48,1.56,1.56,0,0,0-.92-.52,3.88,3.88,0,0,0-.95.12,6.55,6.55,0,0,0-1.44.82,8.68,8.68,0,0,0-1.54,1.42c-.41.54-.91,1.1-1.31,1.7s-.93,1.29-1.42,2.09-1,1.55-1.39,2.27-.88,1.45-1.32,2.23-.89,1.63-1.29,2.51-.81,1.79-1.18,2.72-.74,1.85-1.09,2.75-.69,1.8-1,2.67-.65,1.75-1,2.64-.6,1.74-.86,2.54-.47,1.52-.61,2.1-.27,1.17-.39,1.69a16.74,16.74,0,0,0-.26,1.66,12.82,12.82,0,0,0-.09,1.62,10,10,0,0,0,.08,1.3,5,5,0,0,0,.3.92,5.22,5.22,0,0,0,.37.66,4.33,4.33,0,0,0,.4.47,4.08,4.08,0,0,0,.46.36,3.71,3.71,0,0,0,.54.25,3.67,3.67,0,0,0,.71.11,4.37,4.37,0,0,0,1-.18,5.65,5.65,0,0,0,1.15-.59,9.15,9.15,0,0,0,1.16-1A8.84,8.84,0,0,0,76.27,181c.3-.47,1-1.45,1.78-2.95s1.78-2.94,2.67-4.45,1.57-2.6,1.94-3.27.85-1.56,1.43-2.66,1.11-2.15,1.6-3.15,1-2,1.54-3.14L88.85,158c.55-1.12,1.11-2.24,1.68-3.38l1.58-3.1c.48-.93,1-1.89,1.52-2.9s1-1.84,1.41-2.54a27.48,27.48,0,0,1,1.8-2.68,12,12,0,0,0,1.4-1.43c.07-.06-.13.05-.1,0h-.45l-.32-.19s-.19-.29-.18-.26-.05-.27-.1,0a7.28,7.28,0,0,1-.4,1.21c-.24.64-.51,1.24-.75,2s-.66,1.58-1.06,2.55S94,149.2,93.63,150l-1.23,2.45c-.42.84-.9,1.83-1.44,2.95s-1,2.05-1.37,2.8-.8,1.59-1.3,2.54-1.07,2-1.72,3.22l-1.76,3.22c-.52,1-1.63,2.86-3.33,5.75s-2.71,4.62-3,5.18L77.33,180c-.42.73-.76,1.37-1,1.84s-.49.95-.7,1.29a6,6,0,0,0-.47,1,4.66,4.66,0,0,0-.09.74,4.46,4.46,0,0,0,.12.6l.2.26s.67.23.72.23a4.26,4.26,0,0,0,.91-.47,10.31,10.31,0,0,0,1.1-1.13,9.91,9.91,0,0,0,1.3-1.85c.39-.73,1-1.52,1.49-2.46s1.08-1.69,1.51-2.34,1.33-2,2.64-4.09,2.6-4.15,3.86-6.2,2.25-3.77,3-5.12,1.48-2.82,2.24-4.38,1.51-3.1,2.22-4.6,1.35-2.86,1.89-4.05,1.13-2.48,1.77-3.86,1.17-2.51,1.6-3.4l1.36-2.8,1.11-2.26c.27-.54.5-1,.74-1.43a9,9,0,0,1,.78-1.12,2.88,2.88,0,0,0,.32-1.16l-.26-.37-.38-.18-.44,0-.29.14a5.51,5.51,0,0,0-.6.57c-.22.24-.54.61-.9,1.06a10.09,10.09,0,0,0-1.12,1.62c-.36.63-.83,1.28-1.26,2s-1.26,2-2.31,3.85-2,3.25-2.5,4.29-1,2-1.44,2.85-.91,2-1.52,3.29-1.14,2.58-1.6,3.69-.86,2.09-1.19,2.92-.67,1.79-1,2.83-.64,2.06-.88,3-.42,1.81-.53,2.47-.23,1.5-.34,2.49-.18,1.81-.2,2.4,0,1.26,0,1.91.08,1.26.14,1.72a11.77,11.77,0,0,0,.3,1.43,7.12,7.12,0,0,0,.44,1.21,5.83,5.83,0,0,0,.58.94,4.43,4.43,0,0,0,.87.84,6.79,6.79,0,0,0,1,.62,6.26,6.26,0,0,0,1.06.36,5.78,5.78,0,0,0,1.24.1,6.8,6.8,0,0,0,1.43-.26,7.16,7.16,0,0,0,1.63-.8,12,12,0,0,0,1.79-1.39c.57-.55,1.22-1.13,1.77-1.77s1.17-1.29,1.73-2,1.18-1.41,1.77-2.15,1.18-1.51,1.75-2.29,1.09-1.51,1.54-2.18,1.3-2,2.55-4.09a49.26,49.26,0,0,0,2.52-4.52c.42-.93.86-2,1.32-3s.86-2.09,1.22-3,.78-2.06,1.26-3.42.9-2.62,1.25-3.74.68-2.25,1-3.35.54-2.07.71-2.87.35-1.73.53-2.74.29-1.85.36-2.39.15-1,.2-1.25a2.53,2.53,0,0,0,0-.7,3.71,3.71,0,0,0-.25-.37l-.4-.24a4.12,4.12,0,0,0-1,.14,5.84,5.84,0,0,0-1.16.86,9.74,9.74,0,0,0-1.51,1.87c-.49.85-1,1.57-1.38,2.21s-1.22,2-2.45,4.06-2.14,3.57-2.63,4.48-.92,1.8-1.27,2.59-.72,1.7-1.11,2.67-.72,1.93-1,2.82-.53,1.8-.72,2.64-.34,1.61-.43,2.22-.17,1.31-.22,2-.11,1.37-.13,1.9a16.27,16.27,0,0,0,0,1.68,13.08,13.08,0,0,0,.22,1.66,11.09,11.09,0,0,0,.4,1.48,11.85,11.85,0,0,0,.55,1.3,10.86,10.86,0,0,0,.67,1.14,9,9,0,0,0,.74.94,6.17,6.17,0,0,0,.91.8A9.39,9.39,0,0,0,108,173a7.74,7.74,0,0,0,1.1.46,6.69,6.69,0,0,0,1.16.24,6.87,6.87,0,0,0,1.19,0,7.43,7.43,0,0,0,1.13-.22,9.49,9.49,0,0,0,1.21-.46,11.5,11.5,0,0,0,1.3-.72,11.18,11.18,0,0,0,1.22-1c.37-.36.84-.8,1.26-1.28s.87-1,1.23-1.4.73-.88,1-1.28.66-.87,1-1.36l.78-1.1c.16-.23.87-1.41,2.25-3.4s1.94-3.21,2-3.3L126,158s-.06.09-.05.07l-.38.26h-.48l-.47-.33-.15-.48s0-.09,0,0l-.1.57c0,.28-.11.69-.16,1.13s-.09,1-.09,1.48a11.36,11.36,0,0,0,.08,1.53,14.18,14.18,0,0,0,.31,1.45,9.25,9.25,0,0,0,.55,1.44,9,9,0,0,0,.84,1.37,10.78,10.78,0,0,0,1.17,1.29,15,15,0,0,0,1.35,1.12c.43.31.9.62,1.33.88a17.69,17.69,0,0,0,1.66.87,11.85,11.85,0,0,0,2,.74,14.35,14.35,0,0,0,2,.38c.67.07,1.49.15,2.35.17s1.72,0,2.51,0,1.56-.06,2.25-.12,1.56-.18,2.53-.34,1.92-.34,2.8-.52,1.77-.38,2.64-.59,1.76-.45,2.64-.7,1.76-.51,2.63-.78,1.65-.52,2.31-.75,1.48-.52,2.44-.87l2.57-1,2.26-.86,2-.78,1.88-.74c.68-.25,1.28-.48,1.86-.67s1.17-.4,1.84-.6,1.18-.35,1.61-.44a9.9,9.9,0,0,1,1.23-.2,7.49,7.49,0,0,1,1.06,0c.32,0,.51,0,.76,0a5.29,5.29,0,0,1,.57,0l.44.07.4.1.37.12.38.15.61.3c.3.15.84.45,1.69.93s1.73,1,2.62,1.43,1.5.78,1.7.87.77.29,1.58.56,1.43.47,1.79.56l1.13.28c.38.08.81.17,1.25.25s.91.15,1.37.21,1,.13,1.45.16,1,.09,1.51.11,1.1.06,1.75.06l1.85,0,1.57,0H203c.49,0,2-.08,4.43-.28l4.39-.32,1.73-.15,2-.16,1.94-.13,1.85-.1,1.62-.07c.46,0,1.44-.06,3-.08s2.57-.05,3.11-.08l1.66-.08c.56,0,1.09-.06,1.59-.11s1.6-.1,3.3-.2l3.32-.19,2-.11c.83,0,1.53-.07,2.12-.09s1.26,0,2,0,1.47,0,2.21.06l2.17.12c.71,0,1.43.09,2.16.15l2.2.21,2.12.24,2.06.27c.7.09,1.4.2,2.09.31s1.36.22,2,.34l1.72.32c.51.1,1.66.28,3.43.54s2.93.43,3.47.49l1.84.18,2.14.18c.74.05,1.56.1,2.44.13s1.72.06,2.48.07l2.29,0,2.38,0,2.15,0c.62,0,1.29,0,2,.09l2.15.11,2,.1,2.23.1,2.13.08c.58,0,1.58,0,3,0a.48.48,0,0,0,0-1c-1.38,0-2.35,0-2.93,0s-1.28-.05-2.11-.11l-2.23-.14c-.66,0-1.34-.07-2-.09l-2.16-.06-2,0-2.16,0-2.37,0-2.29-.07-2.46-.1-2.42-.14c-.74,0-1.44-.1-2.12-.16l-1.82-.19c-.54-.06-1.67-.23-3.42-.52l-3.4-.57-1.73-.29-2-.32-2.11-.32-2.07-.28c-.68-.09-1.4-.17-2.14-.24s-1.49-.14-2.23-.19l-2.18-.14-2.18-.12c-.74,0-1.5-.06-2.25-.08s-1.44,0-2,0-1.32,0-2.15.07-1.5.07-2,.11l-3.31.18-3.3.16-1.58.06-1.64.05c-.54,0-1.58,0-3.11.13l-3,.14-1.62.07-1.87.09-2,.14-2,.19-1.72.16c-.47,0-1.92.13-4.36.23s-3.88.16-4.38.16h-1.41c-.46,0-1,0-1.55,0s-1.18-.06-1.82-.12-1.19-.1-1.69-.17-1-.12-1.45-.2-.92-.14-1.38-.23-.88-.16-1.31-.26l-1.19-.26-1.06-.26c-.35-.09-.88-.26-1.69-.53s-1.25-.43-1.45-.51-.69-.34-1.57-.81-1.73-.93-2.58-1.41-1.46-.81-1.76-1l-.71-.34-.47-.19-.49-.16-.51-.13-.59-.1c-.18,0-.48,0-.73,0a7.08,7.08,0,0,0-.94.05c-.31.09-.76.15-1.18.29s-.89.24-1.3.39-1,.33-1.64.58-1.28.48-1.84.71-1.18.48-1.84.77l-1.87.76-2,.77-2.27.86-2.56,1c-1,.35-1.76.64-2.42.86s-1.42.47-2.29.74-1.73.53-2.61.77-1.73.47-2.6.69-1.73.4-2.61.58-1.79.35-2.77.51-1.77.27-2.46.33-1.4.1-2.19.11-1.59,0-2.45-.07a20.68,20.68,0,0,1-2.25-.26,14.3,14.3,0,0,1-1.83-.45,11.74,11.74,0,0,1-1.76-.73c-.63-.33-1.11-.58-1.54-.84s-.81-.52-1.23-.83a8.85,8.85,0,0,1-1.17-1,7.32,7.32,0,0,1-.94-1.16,7.57,7.57,0,0,1-1.21-3.62,10.67,10.67,0,0,1-.06-1.32,12.23,12.23,0,0,1,.08-1.31c.05-.44.09-.75.14-1l.1-.57c0-.1,0-.31,0-.32l-.15-.48-.48-.33H125l-.41.28-.15.24-.1.22c0,.09-.63,1.08-1.83,3.17s-1.76,3.28-1.91,3.51-.4.59-.75,1.09-.67.93-1,1.33-.63.79-1,1.21a16.88,16.88,0,0,1-1.24,1.27,14.12,14.12,0,0,1-1.27,1.06c-.42.29-.74.53-1.16.76a8.13,8.13,0,0,1-1.09.61,6.1,6.1,0,0,1-1,.37,4.07,4.07,0,0,1-.84.16,3.52,3.52,0,0,1-.85,0,3.33,3.33,0,0,1-.82-.17,4.38,4.38,0,0,1-.82-.35A6,6,0,0,1,108,171c-.32-.23-.5-.39-.76-.61a6,6,0,0,1-.68-.69,6.09,6.09,0,0,1-.64-.9,7.53,7.53,0,0,1-.54-1.1,10.12,10.12,0,0,1-.42-1.29,14.9,14.9,0,0,1-.3-1.5c-.09-.55-.12-1-.16-1.57s0-1.11,0-1.83.12-1.34.21-2,.23-1.31.42-2.16.42-1.68.7-2.57.6-1.79,1-2.76.74-1.84,1.09-2.64.75-1.62,1.24-2.53,1.34-2.37,2.6-4.43,2.11-3.35,2.56-3.92a17.65,17.65,0,0,1,1.66-1.9c.68-.7,1.1-1.17,1.5-1.55s.46-.45.67-.54-.28-.11-.24-.09a1.44,1.44,0,0,0-.22-.14s-.13-.18-.1-.12,0-.07.17.13a3.77,3.77,0,0,1,.17,1,14.12,14.12,0,0,1-.27,2.3c-.18,1-.35,1.91-.52,2.7s-.4,1.73-.7,2.83-.61,2.19-1,3.31-.76,2.35-1.24,3.71-.89,2.48-1.25,3.39-.76,1.9-1.21,3-.88,2.09-1.3,3A47.32,47.32,0,0,1,108,164c-1.25,2-2.08,3.39-2.53,4.06s-.94,1.37-1.51,2.15-1.14,1.52-1.73,2.26-1.17,1.44-1.75,2.13a23.18,23.18,0,0,1-1.78,1.85,19.73,19.73,0,0,1-1.84,1.51,12,12,0,0,1-1.73,1,9.45,9.45,0,0,1-1.38.52,3.43,3.43,0,0,1-1,.19,2.43,2.43,0,0,1-.8-.06,2.9,2.9,0,0,1-.72-.24,3.42,3.42,0,0,1-.72-.44,8.41,8.41,0,0,1-.68-.56,4.29,4.29,0,0,1-.55-.61,4.87,4.87,0,0,1-.5-.89,6.54,6.54,0,0,1-.41-1.21,10.88,10.88,0,0,1-.24-1.58,16.12,16.12,0,0,1-.07-1.82c0-.6.09-1.35.2-2.34s.22-1.78.33-2.44.28-1.44.52-2.4.52-1.93.86-3,.67-1.94,1-2.78.72-1.8,1.18-2.91,1-2.32,1.59-3.66,1.11-2.43,1.51-3.28.87-1.78,1.42-2.81,1.37-2.44,2.47-4.24,1.95-3,2.48-3.66,1-1.27,1.5-1.79a15.06,15.06,0,0,0,1.26-1.43c.36-.44.62-.75.84-1s.19-.24.27-.29l-.13.05-.39,0-.37-.18-.25-.35s-.05-.39-.11,0a4.43,4.43,0,0,1-.28,1.26c-.17.44-.4.91-.67,1.45l-1.11,2.27-1.36,2.8c-.43.89-1,2-1.61,3.42s-1.23,2.67-1.77,3.86-1.17,2.53-1.88,4-1.45,3-2.22,4.59-1.5,3-2.23,4.35-1.7,3-3,5.07-2.53,4.11-3.85,6.18-2.18,3.42-2.62,4.06-1,1.39-1.64,2.25-1.22,1.61-1.79,2.21-1,1.11-1.41,1.6a6.74,6.74,0,0,1-.87.91c-.24.19.09.1,0,.11a3.89,3.89,0,0,0,.53.21l.14.18s.09.3.09.17a1.14,1.14,0,0,1,.05-.35c0-.25,0-.46.07-.87a7.49,7.49,0,0,1,.38-1.3,13.74,13.74,0,0,1,.89-1.83l1.1-1.93q.48-.84,3-5.17c1.7-2.89,2.82-4.82,3.34-5.77l1.76-3.22c.65-1.2,1.23-2.28,1.73-3.23s.94-1.81,1.31-2.56.83-1.68,1.37-2.81,1-2.1,1.44-2.94l1.23-2.44c.42-.78.86-1.64,1.38-2.55s1-1.73,1.41-2.39a9.34,9.34,0,0,0,1-2,11,11,0,0,0,.48-1.51,4.8,4.8,0,0,0,0-.89l-.22-.35-.38-.22-.58,0a3.75,3.75,0,0,0-.42.25A7.71,7.71,0,0,0,96,142.88c-.73,1.17-1.34,2.11-1.74,2.8s-.88,1.55-1.42,2.56-1.05,2-1.53,2.92l-1.58,3.11c-.57,1.14-1.14,2.27-1.69,3.39L86.43,161c-.53,1.1-1,2.14-1.53,3.13s-1,2-1.6,3.13-1,2-1.41,2.63-1,1.74-1.93,3.24-1.85,2.93-2.86,4.29S75.45,179.6,75,180s-.69.73-1,1.09a5.77,5.77,0,0,1-.92.78,2.28,2.28,0,0,1-.72.38c-.29.1-.25.1-.43.1s-.07,0-.2,0a.36.36,0,0,1-.17-.08.71.71,0,0,1-.19-.15,1,1,0,0,1-.19-.22,1.79,1.79,0,0,1-.21-.38,4.54,4.54,0,0,1-.23-.64,5.14,5.14,0,0,1-.28-1,9.9,9.9,0,0,1-.14-1.44,13.14,13.14,0,0,1,.06-1.56,10.41,10.41,0,0,1,.29-1.62c.15-.58.34-1.24.6-2s.54-1.63.85-2.52.63-1.75,1-2.62.66-1.75,1-2.65.71-1.81,1.09-2.74.75-1.81,1.16-2.68.82-1.66,1.26-2.44.88-1.5,1.31-2.21.93-1.4,1.49-2.15a23,23,0,0,1,1.53-1.88,14.5,14.5,0,0,1,1.46-1.39c.52-.43.91-.77,1.43-1.15a3,3,0,0,1,.93-.57c.27-.08.06-.09.15-.08s-.1-.06,0,0-.06-.07,0,0,0,0,0,.07.1.1.26.36a4,4,0,0,1,.23,1.14,9.87,9.87,0,0,1,0,1.92c-.08.74-.18,1.5-.32,2.34s-.31,1.76-.53,2.79-.41,1.88-.59,2.57-.38,1.45-.63,2.32-.49,1.66-.73,2.42-.5,1.47-.79,2.21a19,19,0,0,1-1,2.16c-.42.75-.8,1.4-1.19,2s-.75,1.17-1.12,1.72-.79,1.1-1.26,1.69a19.85,19.85,0,0,1-1.32,1.5,16.6,16.6,0,0,1-1.48,1.34,19.77,19.77,0,0,1-1.95,1.4,18.08,18.08,0,0,1-1.94,1.09,15.88,15.88,0,0,1-1.73.7,10.87,10.87,0,0,1-1.71.43,8.58,8.58,0,0,1-1.6.14,7.36,7.36,0,0,1-1.52-.16,6.67,6.67,0,0,1-1.31-.38,8.44,8.44,0,0,1-1.1-.55,12.84,12.84,0,0,1-1.11-.74,9.36,9.36,0,0,1-1-.83,7,7,0,0,1-.79-.89,7,7,0,0,1-1.09-2.21,9.49,9.49,0,0,1-.26-1.56,10.72,10.72,0,0,1,0-1.77,8,8,0,0,1,.32-1.62,11.73,11.73,0,0,1,.82-2c.39-.79.78-1.49,1.2-2.19S61.5,164,62.15,163s1.39-2,2.25-3.15S66,157.78,66.71,157s1.46-1.68,2.37-2.63,1.77-1.81,2.61-2.6,1.69-1.55,2.56-2.29,1.7-1.41,2.53-2,1.73-1.27,2.75-1.95,1.86-1.21,2.63-1.62a18.13,18.13,0,0,1,2.27-1,11.47,11.47,0,0,1,2.29-.61,6,6,0,0,1,1.87-.07,4.07,4.07,0,0,1,1.32.39,5.57,5.57,0,0,1,1.21.8,7.55,7.55,0,0,1,1.22,1.33,9.47,9.47,0,0,1,1,1.68,14.89,14.89,0,0,1,.75,2,19.28,19.28,0,0,1,.57,2.28c.15.8.26,1.56.33,2.36s.12,1.63.14,2.55,0,1.72,0,2.47-.06,1.43-.13,2.1-.14,1.31-.24,2-.2,1.24-.32,1.8-.23,1.08-.37,1.6-.26,1-.41,1.49-.26.87-.37,1.18a18.4,18.4,0,0,1-1.58,2.68c-1,1.6-1.43,2.4-1.59,2.59s-.31.38-.52.62-.39.42-.61.64-.41.39-.68.61-.49.39-.77.59-.48.33-.71.46l-.65.38c-.24.15-.8.38-1.75.84s-2,.83-3.1,1.25-1.88.68-2.3.82l-1.17.4c-.36.12-1.28.48-2.71,1.05l-2.77,1.11-1.13.47c-.36.14-1.28.57-2.75,1.17A23.92,23.92,0,0,0,65.78,185c-.34.2-.75.46-1.1.71a10.55,10.55,0,0,0-.91.71,4.66,4.66,0,0,0-.54.58,4.36,4.36,0,0,0-.22.77,7.48,7.48,0,0,0,.44.68,4.09,4.09,0,0,0,.79.14,4.81,4.81,0,0,0,.77-.14,2.68,2.68,0,0,0,.79-.38c.24-.17,1.09-.62,2.3-1.46s2.18-1.33,2.73-1.68,1.1-.7,1.61-1,1.15-.79,1.9-1.32,1.53-1.11,2.31-1.72,1.46-1.15,2-1.61l1.57-1.32c.51-.43,1.49-1.31,2.92-2.62s2.38-2.18,2.77-2.57.85-.88,1.39-1.41,1.3-1.62,2.36-3a22,22,0,0,0,1.58-2.81,4.68,4.68,0,0,0,.21-1,3.78,3.78,0,0,0-.16-.76,3.91,3.91,0,0,0-.28-.32,3.79,3.79,0,0,0-.37-.2,4.5,4.5,0,0,0-.8-.07,5.87,5.87,0,0,0-1,.13,6.48,6.48,0,0,0-1.05.45c-.35.2-1.26.72-2.49,1.52s-2.06,1.31-2.5,1.54a11.11,11.11,0,0,1-1.37.63,6.59,6.59,0,0,1-1.19.44,2.09,2.09,0,0,1-.82.1,1.75,1.75,0,0,1-.62-.11,1.94,1.94,0,0,1-.53-.25,3.27,3.27,0,0,1-.51-.37,3.49,3.49,0,0,1-.58-.57,4.46,4.46,0,0,1-.59-.88,6,6,0,0,1-.46-1.11,10.64,10.64,0,0,1-.33-1.55,15.56,15.56,0,0,1-.16-1.8,11.4,11.4,0,0,1,.09-1.69c.07-.57.18-1.22.35-2s.39-1.64.66-2.57.54-1.74.83-2.5.69-1.77,1.24-3.05,1-2.36,1.41-3.25.86-1.89,1.4-3,1.41-2.89,2.65-5.32,2.15-4.19,2.74-5.31,1.24-2.31,2-3.59,1.29-2.29,1.73-3,2.09-3.48,5-8.17c1.57-2.29,2.64-4.07,3.49-5.17l.8-1.33.2-.33,0-.08s-1.39-1-1.39-1l-.18.25a8.81,8.81,0,0,0-.86,1.58,22.12,22.12,0,0,1-1.17,2l-1.11,1.5-1.39,1.85-1.76,2.32-2.35,3.11c-.89,1.18-1.84,2.58-2.8,4.13S85.22,130,84,132s-2.47,4.06-3.76,6.2-2.62,4.37-4,6.69-2.74,4.7-4.08,7.12-2.67,4.93-4,7.49-2.53,5.1-3.7,7.59-2.3,4.93-3.39,7.33-2.19,4.81-3.29,7.25-2.07,4.58-2.91,6.44-1.74,3.84-2.67,5.93-1.77,4-2.51,5.7-1.48,3.29-2.19,4.79L45.41,209q-1,2.2-2,4.14t-1.57,3.17c-.41.82-.86,1.75-1.36,2.79s-.91,1.91-1.28,2.62-.7,1.38-1,2-.84,1.63-1.68,3-1.12,2.24-1.24,2.47l-.32.66a6.73,6.73,0,0,0-.28.66,4.63,4.63,0,0,0,0,.67l.31.45.57.18.48-.16a4.9,4.9,0,0,0,.4-.31l.44-.39.67-.59c.26-.23.67-.62,1.2-1.12A.84.84,0,1,0,37.5,228Z"/></svg>