<svg id="Layer_1" data-name="Layer 1" xmlns="http://www.w3.org/2000/svg" viewBox="0 0 890 252"><title>Artboard 2</title><path d="M8.68,177.77H20.06c4,0,6.21,2.17,6.21,6.21v18.94h17.8V184c0-4,2.17-6.21,6.21-6.21H61.66c4,0,6.21,2.17,6.21,6.21v60c0,4-2.17,6.21-6.21,6.21H50.27c-4,0-6.21-2.17-6.21-6.21v-22H26.27v22c0,4-2.17,6.21-6.21,6.21H8.68c-4,0-6.21-2.17-6.21-6.21V184C2.47,179.94,4.64,177.77,8.68,177.77Z" style="fill:#5db6bd"/><path d="M165.2,244c0,4-2.17,6.21-6.21,6.21H148.23c-4,0-6.21-2.17-6.21-6.21V184c0-4,2.17-6.21,6.21-6.21h12.83c3.41,0,5.79,1.34,7.24,4.55l14.38,30.42,14.38-30.42c1.45-3.21,3.83-4.55,7.24-4.55h12.83c4,0,6.21,2.17,6.21,6.21v60c0,4-2.17,6.21-6.21,6.21H206.38c-4,0-6.21-2.17-6.21-6.21V215.64l-8,16.87c-1.45,3.21-3.83,4.55-7.24,4.55h-4.55c-3.41,0-5.79-1.35-7.24-4.55l-8-16.87Z" style="fill:#a8c535"/><path d="M260,239l-1.45,5.79c-.93,3.62-3.1,5.38-6.83,5.38H239.49c-4.45,0-6.52-2.79-5.17-7L253,182.94a6.74,6.74,0,0,1,7-5.17h20.28a6.63,6.63,0,0,1,6.93,5.17l18.83,60.22c1.35,4.24-.72,7-5.17,7H288.75c-3.62,0-5.9-1.86-6.83-5.38L280.36,239Zm15.83-18-5.59-21.73L264.64,221Z" style="fill:#fbd406"/><path d="M381.87,176.53c11.8,0,22.35,4.35,29.49,13,2.69,3.41,1.45,6.73-2.48,8.48l-8.59,3.73c-3.41,1.55-5.59.41-8.28-2.38a13.16,13.16,0,0,0-9.21-3.62c-7.45,0-13.76,6-13.76,18.21,0,12.62,6.52,18.21,14.07,18.21,4,0,8-1.45,9.73-3.93v-4.45h-5c-4,0-6.21-2.17-6.21-6.21V214.4c0-4,2.17-6.21,6.21-6.21h21c4,0,6.21,2.17,6.21,6.21v18.42a9.68,9.68,0,0,1-2.9,7.55c-7,6.93-17.07,11.07-29.39,11.07C361.07,251.44,345,238.09,345,214,345,190.7,360.24,176.53,381.87,176.53Z" style="fill:#ea6425"/><path d="M450,239l-1.45,5.79c-.93,3.62-3.1,5.38-6.83,5.38H429.46c-4.45,0-6.52-2.79-5.17-7L443,182.94a6.74,6.74,0,0,1,7-5.17h20.28a6.63,6.63,0,0,1,6.93,5.17l18.83,60.22c1.35,4.24-.72,7-5.17,7H478.72c-3.62,0-5.9-1.86-6.83-5.38L470.34,239Zm15.83-18-5.59-21.73L454.61,221Z" style="fill:#bc242c"/><path d="M530.86,244c0,4-2.17,6.21-6.21,6.21H513.27c-4,0-6.21-2.17-6.21-6.21V184c0-4,2.17-6.21,6.21-6.21h22.45c19.25,0,32,7.35,32,23.69,0,9.62-4.45,16.14-11.9,19.87l12.31,21.42c2.48,4.35.52,7.45-4.35,7.45H552.28a7.33,7.33,0,0,1-7.24-4.55l-9.73-20.49h-4.45Zm13.35-42.53c0-4.45-2.79-6.31-7.66-6.31h-5.69v12.62h5.69C541.42,207.78,544.21,206,544.21,201.46Z" style="fill:#ffd413"/><path d="M608.57,250.2H587.36c-4,0-6.21-2.17-6.21-6.21V184c0-4,2.17-6.21,6.21-6.21h21.21c23.8,0,38.29,13.24,38.29,36.22S632.37,250.2,608.57,250.2Zm.41-19c8.07,0,13.87-4.66,13.87-17.18s-5.79-17.18-13.87-17.18h-4v34.35Z" style="fill:#57bbbd"/><path d="M664,177.77h39.42c4,0,6.21,2.17,6.21,6.21v5.8c0,4-2.17,6.21-6.21,6.21H681.73v8h18.11c4,0,6.21,2.17,6.21,6.21v5.79c0,4-2.17,6.21-6.21,6.21H681.73V232h22.66c4,0,6.21,2.17,6.21,6.21V244c0,4-2.17,6.21-6.21,6.21H664c-4,0-6.21-2.17-6.21-6.21V184C657.82,179.94,660,177.77,664,177.77Z" style="fill:#bc242c"/><path d="M745.77,244c0,4-2.17,6.21-6.21,6.21H728.18c-4,0-6.21-2.17-6.21-6.21V184c0-4,2.17-6.21,6.21-6.21h22.45c19.25,0,32,7.35,32,23.69,0,9.62-4.45,16.14-11.9,19.87L783,242.75c2.48,4.35.52,7.45-4.35,7.45H767.19a7.33,7.33,0,0,1-7.24-4.55l-9.73-20.49h-4.45Zm13.35-42.53c0-4.45-2.79-6.31-7.66-6.31h-5.69v12.62h5.69C756.33,207.78,759.12,206,759.12,201.46Z" style="fill:#ffd413"/><path d="M820.27,184v60c0,4-2.17,6.21-6.21,6.21H802.68c-4,0-6.21-2.17-6.21-6.21V184c0-4,2.17-6.21,6.21-6.21h11.38C818.1,177.77,820.27,179.94,820.27,184Z" style="fill:#57bbbd"/><path d="M841,177.77h39.42c4,0,6.21,2.17,6.21,6.21v5.8c0,4-2.17,6.21-6.21,6.21H858.66v8h18.11c4,0,6.21,2.17,6.21,6.21v5.79c0,4-2.17,6.21-6.21,6.21H858.66V232h22.66c4,0,6.21,2.17,6.21,6.21V244c0,4-2.17,6.21-6.21,6.21H841c-4,0-6.21-2.17-6.21-6.21V184C834.76,179.94,836.93,177.77,841,177.77Z" style="fill:#bc242c"/><circle cx="103.8" cy="205.51" r="28.2" style="fill:#6f9d32"/><circle cx="808.5" cy="157.35" r="12.11" style="fill:#57bbbd"/><ellipse cx="104.1" cy="243.31" rx="15.6" ry="3" style="fill:#ababab"/><line x1="134" y1="153.67" x2="134" y2="153.67" style="fill:none;stroke:#ababab;stroke-linecap:round;stroke-linejoin:round;stroke-width:24px"/><path d="M166.1,111.32C187.72,92.25,222.18,73.38,275,70.67c68.18-3.5,115.81,17.5,160.15,59" style="fill:none;stroke:#ababab;stroke-linecap:round;stroke-linejoin:round;stroke-width:24px;stroke-dasharray:0,53.54370880126953"/><line x1="454" y1="148.67" x2="454" y2="148.67" style="fill:none;stroke:#ababab;stroke-linecap:round;stroke-linejoin:round;stroke-width:24px"/><path d="M479.14,100.07c25.9-39.45,73-88.14,146.86-85.4,78.64,2.92,130.9,29.79,156.32,70.26" style="fill:none;stroke:#ababab;stroke-linecap:round;stroke-linejoin:round;stroke-width:24px;stroke-dasharray:0,54.826316833496094"/><line x1="794" y1="109.67" x2="794" y2="109.67" style="fill:none;stroke:#ababab;stroke-linecap:round;stroke-linejoin:round;stroke-width:24px"/></svg>